<svg width="335" height="324" version="1" xmlns="http://www.w3.org/2000/svg" xmlns:xlink="http://www.w3.org/1999/xlink"><defs><path id="a" d="M0 324V1h334v323z"/></defs><g fill="none" fill-rule="evenodd"><mask id="b" fill="#fff"><use xlink:href="#a"/></mask><path d="M294 120a682 682 0 0 1-1-72v-4l1-3h-6l-23 1c-53 4-111 3-164 3 0-2 4-4 0-5-18-3-18-7-18-10 0-2 13 0 9-2 13 0 36-1 22-3-4-2-22 0-26-2-5-3 4-6 0-9H70c-5-2 4-5 0-5-14-2-31-1-49-1 0-2-5-4 4-5l143-1 72-1h94v116l-1 92c-1 18-4 5-7-9 1 5-2 5-1 9-3 0-7-9-8-27v14c-1 4-3 0-5 0v-9h-4v18l-1-9h-4v-31h-2v31c-1-5-2-5-4-5-1-13 2-26-1-40v14c-4-9-1-32-2-45" fill="#DEBC3E" mask="url(#b)"/><path d="M43 233c1 19-1 53-1 50h6l24-1c43-3 91-3 135-3 0 1-4 4 0 5 14 3 14 6 14 10 0 2-11 0-7 2-11 0-29 1-18 3 3 1 18 0 22 2 3 3-4 6 0 9h14c4 1-3 5 0 5 11 2 26 1 40 1 0 2 4 4-3 4a24978981 24978981 0 0 1-184 3l-30 1H0l2-59a312731 312731 0 0 1 5-107c2-14 5-3 7 8-1-4 2-4 1-7 3 0 7 7 8 22v-11c1-4 3 0 5 0v7l4 1v-15l1 7h4c0 8-2 19-1 26h2c2-7 1-18 1-26 1 4 2 4 4 4 0 11-3 22 0 33v-11c4 8 0 26 0 37" fill="#11B8DF" mask="url(#b)"/><path d="M78 67l-3-1h-7v17h7l3-1 1-3v-8l-1-4zm4 18c-2 2-4 3-7 3h-7v16h-5V62h11c4 0 6 0 8 2s3 4 3 7v7c0 3-1 6-3 7zm21 19V85L92 62h6l8 17 7-17h6l-11 23v19h-5m27-2c-2-2-3-5-3-8V72c0-3 1-6 3-8l8-2h8v4h-9l-3 2-1 3v24l1 3 3 2h9v4h-8l-8-2m44-34l-4-2h-3l-4 2-1 3v24l1 3 4 2h3l4-2 1-3V71l-1-3zm3 34l-7 2h-3l-8-2-2-8V72l2-8 8-2h3l7 2c2 2 3 5 3 8v22c0 3-1 6-3 8zm16 2h-4V62h8l9 38V62h5v42h-8l-10-38v38m48-42v4h-14v14h13v5h-13v15h14v4h-19V62h19m29 40l-8 2h-8v-4h9l3-2 2-3v-6l-1-3-3-1h-2c-3 0-5-1-7-3l-2-8v-2c0-3 1-6 3-8l8-2h8v4h-9l-4 2-1 3v5l1 3 3 1h2l7 2 2 8v4c0 3-1 6-3 8M77 177l3-6 2-3v-11l-2-5-5-2H65v-6h9c5 0 9 1 11 3 3 3 4 6 4 11v11l-2 5-4 5-12 18h20v7H63v-8l14-19m54 18c1 2 3 2 5 2h2c2 0 3 0 5-2l2-4v-23l-16 23 2 4zm12-43l-5-2h-2l-5 2-2 5v23l16-23-2-5zm5 48c-3 3-6 4-10 4h-2c-4 0-8-1-10-4-3-2-4-6-4-11v-31c0-4 1-8 4-11 2-2 6-3 10-3h2c4 0 7 1 10 3 2 3 4 7 4 11v31c0 5-2 9-4 11zm47-3v-46l-12 4v-7l11-4h8v53h9v7h-27v-7h11m56-45l-1 4v7l1 5 4 2h3l4-2 2-5v-7l-2-4-4-2h-3l-4 2zm12 26l-4-2h-4l-5 2-1 4v9l1 5 4 1h5l4-1 2-5v-9l-2-4zm6 23c-3 2-6 3-11 3h-3c-5 0-8-1-10-3-3-3-4-6-4-11v-7c0-5 2-8 6-11-3-2-5-5-5-9v-6c0-4 1-8 4-10 2-2 5-3 10-3h1c5 0 8 1 10 3 3 2 4 6 4 10v6c0 4-2 7-4 9 3 3 5 6 5 11v7c0 5-1 8-3 11zM64 264v-20h3l3 12 1 2v-2l4-12h3v20h-2v-15l-1 2-4 13-4-13-1-2v15h-2m52-26l-6 4h-2l5-4h3zm-10 19h7l-3-8-1-2v2l-3 8zm10 7l-2-5h-9l-2 5h-3l8-20h2l8 20h-2zm25 0v-20h2v18h12v2h-14m42-7h7l-3-8-1-2v2l-3 8zm10 7l-2-5h-9l-2 5h-3l8-20h2l8 20h-2zm32 0l-4-1-3-4-1-5 2-7 6-3 4 1 3 2-2 1-2-2h-3l-3 1-2 3v8l2 3 3 1 4-1 1-4v-1h-4v-1h7v2l-2 5-6 2m34-7h8l-3-8-1-2v2l-4 8zm11 7l-2-5h-9l-2 5h-3l8-20h2l8 20h-2z" fill="#191F20"/><path d="M32 297h273V28H32v269zm-7 7h287V21H25v283z" fill="#191F20"/></g></svg>